<?xml version="1.0" encoding="UTF-8" standalone="no"?>
<svg
   version="1.0"
   width="512.000000pt"
   height="512.000000pt"
   viewBox="0 0 512.000000 512.000000"
   preserveAspectRatio="xMidYMid meet"
   id="svg4"
   sodipodi:docname="Wallcc.svg"
   inkscape:export-filename="Wallcc.svg"
   inkscape:export-xdpi="72"
   inkscape:export-ydpi="72"
   inkscape:version="1.3.1 (9b9bdc1480, 2023-11-25, custom)"
   xmlns:inkscape="http://www.inkscape.org/namespaces/inkscape"
   xmlns:sodipodi="http://sodipodi.sourceforge.net/DTD/sodipodi-0.dtd"
   xmlns="http://www.w3.org/2000/svg"
   xmlns:svg="http://www.w3.org/2000/svg">
  <defs
     id="defs4" />
  <sodipodi:namedview
     id="namedview4"
     pagecolor="#ffffff"
     bordercolor="#000000"
     borderopacity="0.25"
     inkscape:showpageshadow="2"
     inkscape:pageopacity="0.0"
     inkscape:pagecheckerboard="true"
     inkscape:deskcolor="#d1d1d1"
     inkscape:document-units="pt"
     inkscape:zoom="0.83692717"
     inkscape:cx="126.65379"
     inkscape:cy="388.32531"
     inkscape:window-width="1920"
     inkscape:window-height="1011"
     inkscape:window-x="0"
     inkscape:window-y="32"
     inkscape:window-maximized="1"
     inkscape:current-layer="svg4" />
  <g
     transform="matrix(0.1,0,0,-0.1,0,512)"
     fill="#000000"
     stroke="none"
     id="g4"
     style="display:inline">
    <path
       style="display:inline;fill:#f9f9f9;fill-opacity:1;stroke-width:0.999997"
       d="m 379.8692,239.28666 c -0.76608,0.68828 -1.3086,1.59934 -1.96976,2.3878 -1.68246,2.25176 -3.63443,4.42221 -4.45721,7.17199 -0.71692,2.13017 -0.43153,4.55004 0.77291,6.44879 1.41806,2.27249 3.57028,3.98373 5.81246,5.39394 2.52335,1.54984 5.63485,2.36049 8.55733,1.60208 3.33807,-0.81318 6.08087,-3.10071 8.26608,-5.66329 1.32549,-1.58601 2.68783,-3.17995 3.6611,-5.01376 0.52161,-0.84197 0.0357,-1.80403 -0.39504,-2.56452 -1.26286,-2.12508 -2.84556,-4.06865 -4.66439,-5.74238 -0.81197,-0.74699 -1.99516,-1.5075 -3.11445,-0.94938 -0.88058,0.44955 -1.4999,1.27257 -2.41741,1.67267 -0.84837,0.45584 -1.88559,0.72695 -2.794,0.26969 -2.32341,-0.97348 -3.98847,-2.94538 -5.87613,-4.53464 -0.37554,-0.36169 -0.82679,-0.76734 -1.38149,-0.47899 z"
       id="path81"
       transform="matrix(7.5,0,0,-7.5,0,5120)" />
    <path
       style="display:inline;fill:#aaeeff;fill-opacity:1;stroke-width:1"
       d="m 466.32701,143.33148 c -1.33634,0.036 -1.68071,1.58579 -1.40401,2.65457 0.49939,3.62575 1.92416,7.08676 1.95096,10.75479 -0.0322,1.22023 -0.37603,2.47201 -1.2001,3.40018 -1.31368,-2.75882 -2.08239,-5.76389 -2.45124,-8.78516 -0.10412,-1.29305 -1.53913,-2.25016 -2.73508,-1.61783 -1.92363,1.16713 -2.44152,3.57072 -3.60555,5.35493 -1.37944,2.57267 -3.69533,4.46527 -5.45037,6.77663 -0.9032,1.14957 -1.32394,2.59193 -1.17175,4.04672 0.036,2.20333 1.51448,4.05851 2.85643,5.68135 1.65344,1.72175 3.36209,3.6277 5.66211,4.45793 2.07229,0.65151 3.81815,-1.11187 4.87315,-2.67675 1.50078,-2.09168 2.62701,-4.41689 4.00565,-6.58536 3.99443,1.28047 7.82924,3.29197 12.05407,3.69802 2.23831,0.25988 4.74053,-0.75437 5.62359,-2.94366 0.80353,-1.9984 0.70286,-4.24725 0.47987,-6.35287 -0.95561,-5.01812 -4.85952,-8.75905 -8.79173,-11.69059 -2.97954,-2.14022 -6.04473,-4.20708 -9.32934,-5.85027 -0.43203,-0.18137 -0.89121,-0.34376 -1.36666,-0.32263 z"
       id="path86"
       transform="matrix(7.5,0,0,-7.5,0,5120)" />
    <path
       style="display:inline;fill:#aaeeff;fill-opacity:1;stroke-width:1"
       d="m 471.76478,98.074602 c -1.88211,0.03818 -3.48685,1.246186 -4.97746,2.274468 -2.98894,2.44208 -5.70787,5.24279 -8.04713,8.31346 -1.10861,1.5043 -2.02054,3.29109 -1.7561,5.21842 0.12295,2.31593 2.12677,3.86111 3.33824,5.65989 3.07362,4.74595 3.59103,10.45517 4.64005,15.87915 0.2871,0.99488 0.20893,2.17834 0.79051,3.04916 1.72337,0.98711 3.68612,1.57379 5.50962,2.38442 3.01818,1.20854 6.01978,2.45991 9.0459,3.64796 1.22156,0.18319 1.26339,-1.36255 1.6538,-2.14842 0.46811,-1.26826 0.97621,-2.54394 0.7338,-3.92235 -0.23205,-8.99454 -1.54829,-17.92769 -3.16161,-26.7669 -0.86946,-3.95179 -1.35918,-8.21883 -3.7864,-11.58985 -0.93663,-1.24192 -2.36709,-2.185815 -3.98322,-1.999408 z"
       id="path87"
       transform="matrix(7.5,0,0,-7.5,0,5120)" />
    <path
       style="display:inline;fill:#aaeeff;fill-opacity:1;stroke-width:1"
       d="m 429.66597,106.22121 c -1.27152,-0.10861 -2.11445,1.21267 -1.83895,2.37306 0.66415,3.48849 2.50439,6.60698 3.94281,9.81539 5.78652,11.7097 10.45629,23.92924 15.40753,36.00974 0.38109,0.72258 0.66162,2.15092 1.77535,1.85178 0.99708,-0.81432 1.42881,-2.15882 2.16497,-3.20311 2.18261,-3.96465 5.09466,-7.8633 5.39209,-12.53672 0.16054,-3.82732 -0.73169,-7.61472 -1.6829,-11.29592 -1.79479,-6.13066 -5.75307,-11.47616 -10.55961,-15.60477 -3.89552,-3.23461 -8.45293,-5.67648 -13.26934,-7.21897 -0.43514,-0.10981 -0.88139,-0.19563 -1.33195,-0.19048 z"
       id="path88"
       transform="matrix(7.5,0,0,-7.5,0,5120)" />
    <path
       style="display:inline;fill:#f9f9f9;fill-opacity:1;stroke-width:0.999997"
       d="m 388.12724,231.40522 c -1.47612,0.0955 -2.54619,1.2824 -3.52802,2.25993 -1.4424,1.45914 -2.56243,3.45066 -2.34091,5.56375 0.12253,2.40628 2.05128,4.36233 4.22266,5.1678 1.019,0.40421 2.20539,0.44442 3.23872,0.079 1.75653,-0.67714 2.7339,-2.53426 2.88866,-4.33205 0.25707,-2.75173 -0.71555,-5.56093 -2.4368,-7.69766 -0.51021,-0.59484 -1.23164,-1.07261 -2.04431,-1.04082 z"
       id="path80"
       transform="matrix(7.5,0,0,-7.5,0,5120)" />
    <path
       style="display:inline;fill:#f9f9f9;fill-opacity:1;stroke-width:0.999997"
       d="m 277.98923,241.03984 c -1.66249,0.10195 -2.86084,1.46882 -3.81062,2.70022 -1.21753,1.69294 -2.24158,3.59465 -2.64698,5.65598 -0.25624,1.62276 -0.0485,3.32914 0.7478,4.78084 1.58087,3.1626 4.07492,5.80047 6.87453,7.92359 1.5491,1.10848 3.24466,2.18523 5.16364,2.46292 3.26359,0.23954 6.47063,-0.94818 9.21835,-2.62861 1.78558,-1.12727 3.39692,-2.58983 4.54821,-4.36822 1.1391,-1.94122 1.99183,-4.30515 1.30934,-6.55284 -0.6838,-2.20522 -2.00917,-4.13416 -3.22952,-6.06978 -0.81274,-1.24544 -1.92255,-2.5908 -3.52927,-2.66842 -1.84361,-0.0681 -3.29077,1.25737 -4.86354,2.00872 -1.17277,0.4949 -2.43153,-0.0763 -3.49649,-0.58698 -1.7906,-0.8064 -3.47727,-1.85028 -5.32631,-2.52076 -0.31076,-0.092 -0.63455,-0.14408 -0.95914,-0.13666 z"
       id="path79"
       transform="matrix(7.5,0,0,-7.5,0,5120)" />
    <path
       style="display:inline;fill:#f9f9f9;fill-opacity:1;stroke-width:0.999997"
       d="m 285.16458,231.5044 c -1.92782,0.026 -3.36199,1.50348 -4.61414,2.79312 -1.15213,1.17535 -2.46372,2.57364 -2.33659,4.35014 0.14728,1.94678 1.66189,3.38853 2.99186,4.65891 1.28317,1.13411 2.74032,2.38351 4.54127,2.43506 2.56118,-0.0435 4.85788,-2.06492 5.45543,-4.52166 0.69439,-2.65291 0.2628,-5.7886 -1.73913,-7.78597 -1.15642,-1.06164 -2.69715,-1.91216 -4.2987,-1.9296 z"
       id="path78"
       transform="matrix(7.5,0,0,-7.5,0,5120)" />
    <path
       style="display:inline;fill:#f9f9f9;fill-opacity:1;stroke-width:0.999997"
       d="m 242.49912,216.33384 c -1.20005,0.36828 -1.61359,1.66535 -2.15884,2.66131 -0.83494,1.81377 -1.46728,3.79512 -1.41019,5.81094 0.006,1.25751 1.01897,2.48935 2.33051,2.46042 1.47426,-0.0211 2.54412,-1.23055 3.4403,-2.2585 1.24937,-1.59908 2.415,-3.3433 2.97222,-5.31438 0.35751,-1.136 -0.4532,-2.45481 -1.6533,-2.57461 -0.61571,-0.0413 -1.25585,-0.0892 -1.75775,-0.49581 -0.52899,-0.33383 -1.15444,-0.43584 -1.76295,-0.28937 z"
       id="path77"
       transform="matrix(7.5,0,0,-7.5,0,5120)" />
    <path
       style="display:inline;fill:#f9f9f9;fill-opacity:1;stroke-width:1"
       d="m 368.36345,163.81642 c -2.40167,1.33059 -1.92689,4.3928 -2.08848,6.71489 0.0815,2.53225 -0.34863,5.18743 0.41127,7.63419 0.82648,1.98891 3.33544,2.30661 5.09409,1.41309 2.5171,-0.9677 5.28849,-1.44162 7.55053,-2.95606 1.49209,-1.54048 0.95559,-4.02591 -0.67991,-5.23945 -2.4024,-2.3822 -4.57572,-5.0349 -7.12051,-7.24904 -0.88567,-0.74559 -2.13077,-0.68383 -3.16699,-0.31762 z"
       id="path76"
       transform="matrix(7.5,0,0,-7.5,0,5120)" />
    <path
       style="display:inline;fill:#f9f9f9;fill-opacity:1;stroke-width:1"
       d="m 268.38119,148.88779 c -2.68638,0.3032 -3.59219,3.23376 -4.93364,5.15287 -4.48729,7.8463 -8.31047,16.06738 -11.77074,24.41242 -1.07693,2.4431 -1.75542,6.07597 0.84794,7.81631 2.25305,1.4176 4.98083,0.0816 6.5755,-1.70256 2.99799,-2.40632 6.92349,-3.12857 10.45932,-4.4206 2.16587,-0.79873 4.55585,-1.18101 6.53758,-2.37664 2.00178,-1.35446 1.31512,-3.95397 0.61482,-5.83338 -2.03501,-5.6188 -3.75776,-11.34514 -4.45665,-17.23446 -0.37282,-1.94701 -0.20947,-4.70565 -2.45589,-5.51719 -0.46712,-0.15397 -0.91337,-0.35996 -1.41824,-0.29677 z"
       id="path75"
       transform="matrix(7.5,0,0,-7.5,0,5120)" />
    <path
       style="display:inline;fill:#f9f9f9;fill-opacity:1;stroke-width:1"
       d="m 379.33993,182.69183 c -3.78123,0.15478 -7.74398,0.11861 -11.29331,1.58664 -2.53178,1.1666 -3.27439,4.15942 -3.10355,6.71493 -0.43203,5.97769 -1.44802,12.26245 -4.99546,17.25289 -1.68434,1.98338 -3.86234,4.12108 -3.45545,6.9769 0.38796,3.46498 2.1099,6.60363 2.70751,10.02846 -7.1371,0.97459 -14.1691,0.92446 -21.3519,0.28672 -5.44809,-0.53786 -10.47605,-2.9439 -15.32282,-5.15822 -6.86122,-3.2496 -13.10676,-7.60094 -19.18543,-12.10911 -2.38016,-1.6506 -4.83409,-3.20147 -7.4014,-4.54579 1.01709,-2.67927 -1.2877,-5.04391 -3.19266,-6.59819 -3.46792,-3.79597 -6.07468,-8.28905 -9.22408,-12.31936 -1.67787,-1.77634 -4.3645,-0.84816 -6.52589,-1.09252 -8.29407,-8.7e-4 -16.59999,-0.11933 -24.88669,-0.0476 -2.58197,0.12636 -3.13795,2.9881 -3.94688,4.92463 -2.83307,7.32278 -5.88316,14.70041 -6.97834,22.52576 -0.40279,2.83282 0.0362,6.53799 3.08292,7.71246 2.70245,0.94024 5.1527,-1.20064 7.29373,-2.54869 2.59298,-1.97429 5.43185,-3.83075 7.32343,-6.53217 0.44782,-0.80786 0.67157,-1.75787 0.52764,-2.67781 4.87536,0.0389 9.69537,-0.80875 14.55776,-0.94637 10.92179,-0.0485 21.47646,6.66311 26.3453,16.39233 -2.50798,-0.11097 -4.01146,2.85452 -2.99588,4.99794 1.40062,3.83214 3.16999,7.61325 3.41296,11.75165 0.56221,6.48222 -0.22503,14.01292 -4.99588,19.02021 -2.76908,2.99373 -6.58933,5.72517 -10.88861,5.12789 -4.08279,-0.4662 -7.43923,-3.28467 -10.2203,-6.11964 -4.76972,-4.91746 -7.42158,-11.6885 -7.45204,-18.52296 -0.0957,-5.00623 -0.31711,-10.28518 2.00653,-14.8861 0.96318,-2.11022 2.06972,-5.01755 0.0808,-6.90571 -1.89796,-1.84449 -4.60077,-0.57692 -6.3981,0.72525 -4.70302,3.14203 -9.20866,7.28324 -10.75866,12.91791 -1.19487,4.04936 -1.05427,8.32551 -1.25619,12.50123 -2.1168,-1.85705 -3.92169,-4.25 -6.52602,-5.43807 -2.43583,-0.90311 -5.0408,1.71111 -4.18438,4.15466 1.93725,7.62953 5.07678,14.88292 7.50452,22.34616 2.91599,8.14363 4.58893,16.76427 8.68246,24.45342 8.02522,15.77426 22.12165,27.56712 37.42482,35.96816 10.05392,5.37269 20.66688,9.79127 31.68606,12.74752 8.35169,2.32956 17.35711,1.53056 25.4157,-1.5239 17.14487,-6.17191 33.94879,-14.40915 47.36524,-26.96001 11.48203,-10.67267 19.73963,-24.56849 24.30241,-39.52322 2.88576,-9.07155 4.70614,-18.46126 5.80526,-27.90459 -0.002,-2.55486 -3.31753,-4.11225 -5.28218,-2.474 -1.52345,1.27445 -2.69057,2.91071 -4.01815,4.37706 0.0456,-7.91042 -2.68663,-16.02571 -8.42244,-21.62129 -1.61043,-1.49713 -2.89946,-3.53406 -4.98968,-4.39068 -2.21666,-0.67429 -4.54586,1.47285 -4.03835,3.73155 1.66217,5.28249 3.72136,10.69373 3.18681,16.35748 -0.59922,8.57017 -4.10462,17.504 -11.27486,22.64399 -3.01074,2.19616 -6.88727,3.25879 -10.56049,2.34826 -5.49357,-1.13674 -9.16447,-6.1659 -11.164,-11.09374 -3.07763,-7.75045 -2.79697,-16.60007 0.0869,-24.36611 0.45351,-1.99099 1.80913,-4.04601 1.10664,-6.10957 -0.75928,-2.22829 -3.81643,-2.68828 -5.42641,-1.09973 -0.77754,0.59694 -0.0292,-1.59062 0.25371,-2.02516 2.67107,-3.76316 6.56988,-6.45565 10.39309,-8.94648 2.51116,-1.75128 5.77138,-2.72667 8.10859,-4.85963 0.56385,-0.84998 1.77008,-0.004 2.63941,-0.002 6.67737,1.47863 13.34598,3.37692 19.46659,6.47731 1.21743,0.57075 1.53958,2.08302 2.69072,2.80426 2.24288,2.0673 5.16535,3.32153 7.24121,5.55052 0.74035,2.29373 1.68824,4.80459 3.69389,6.27971 2.1569,1.40504 5.15647,-0.42401 5.19183,-2.91873 0.11143,-4.39391 -0.85045,-8.73976 -1.28465,-13.09984 -0.45652,-2.24822 -0.24196,-4.75879 -1.40603,-6.77922 -1.66876,-2.04432 -4.53877,-1.04923 -6.81881,-1.29256 -5.70963,0.0599 -11.37004,-1.52217 -16.24293,-4.49231 -5.11398,-2.92119 -9.11843,-7.30095 -13.43611,-11.21602 -2.05446,-1.64807 -4.59668,-2.93796 -7.30319,-2.54314 -0.45876,0.002 -0.91751,0.005 -1.37627,0.007 z"
       id="path74"
       transform="matrix(7.5,0,0,-7.5,0,5120)" />
    <path
       style="display:inline;fill:#f9f9f9;fill-opacity:1;stroke-width:1"
       d="m 359.10767,350.30528 c -2.41225,0.32816 -3.44157,2.90385 -5.54891,3.8446 -5.83618,3.41274 -12.27222,6.33662 -19.12064,6.66324 -4.5817,0.31539 -9.15972,-0.69482 -13.27269,-2.70833 -2.56553,-1.04532 -4.90152,-2.69089 -7.5986,-3.36057 -2.11601,-0.0422 -3.62638,2.0241 -3.31477,4.04291 0.25505,3.26115 -0.50064,6.55806 -2.30528,9.30074 -1.1363,2.13634 -3.01134,3.80157 -3.97483,6.02269 -0.20741,2.43464 1.4044,4.53784 2.06248,6.80778 4.55505,11.38266 8.71485,22.90108 13.26879,34.29041 2.37307,5.47633 4.77272,10.97982 7.80404,16.1283 1.28683,2.14615 4.44359,3.33675 6.49423,1.51237 3.95279,-3.34801 6.0522,-8.24874 8.71829,-12.57471 7.24708,-12.8869 14.65341,-25.68943 21.60113,-38.74131 1.55845,-3.40608 3.81729,-6.75902 3.91119,-10.61591 0.0757,-2.78473 -2.94182,-4.29042 -3.04868,-7.03713 -0.86019,-4.04117 0.39998,-8.71883 -2.31147,-12.22318 -0.82571,-0.95168 -2.10064,-1.50909 -3.36428,-1.3519 z"
       id="path73"
       transform="matrix(7.5,0,0,-7.5,0,5120)" />
    <path
       style="display:inline;fill:#f9f9f9;fill-opacity:1;stroke-width:1"
       d="m 227.51336,382.59144 c -6.95463,0.54001 -14.00395,1.14349 -20.71847,3.13881 -9.90735,3.14648 -18.04891,10.29879 -24.40707,18.32496 -4.00519,4.95535 -5.9434,11.33912 -5.66158,17.67855 0.43585,12.7303 2.91051,25.27907 4.8,37.84733 0.73508,5.66159 2.34392,11.34227 1.80519,17.08473 -0.86206,4.18442 -4.66832,6.79821 -7.17374,9.99459 -10.20773,11.47982 -19.96625,23.05122 -31.37281,33.39438 -5.64105,5.53669 -12.3075,10.33543 -16.41408,17.22326 -2.56226,4.61482 -2.92655,10.03375 -3.56135,15.1561 0.61923,3.21493 3.90864,4.90351 5.9994,7.12356 9.24827,8.22337 18.65341,16.30947 28.26048,24.08861 2.09448,1.5182 4.72046,-0.24898 5.3134,-2.47773 12.47233,-24.52085 24.44511,-49.31638 37.9155,-73.31341 3.38732,-5.98673 7.08101,-11.83911 11.71257,-16.95063 2.74881,-3.38076 5.10207,-7.5721 4.36979,-12.09226 -0.37399,-7.7176 -2.68225,-15.25707 -2.56658,-22.99971 0.21459,-3.0284 3.76583,-4.08457 6.26011,-4.72221 6.16313,-1.08161 12.47222,-0.23089 18.69439,-0.56004 3.26003,0.01 7.56209,-0.63348 8.71316,-4.19956 0.72798,-3.15114 -2.65298,-4.80607 -5.01111,-5.87546 -4.20234,-2.06421 -9.07529,-4.06939 -13.12412,-5.60856 3.05745,-0.2533 4.12402,-4.66003 1.48947,-6.25253 -0.78518,-0.65862 -2.89087,-1.27314 -0.59567,-1.08283 4.89031,-0.35179 10.00516,0.16612 14.69755,-1.49181 2.84879,-1.04784 5.10124,-4.75653 2.94745,-7.46079 -2.9525,-3.30911 -7.69873,-3.98854 -11.79927,-4.98204 -9.70469,-1.91081 -19.81964,-2.3762 -29.48364,0.044 -4.86018,1.01557 -9.54753,2.73167 -14.43442,3.62538 2.69273,-3.42166 4.83293,-7.23758 7.4392,-10.70811 4.4017,-4.12776 10.41762,-5.79655 15.69754,-8.48237 4.98056,-2.48534 10.38561,-4.47017 14.64621,-8.14515 2.34518,-1.9061 1.81226,-6.20503 -1.27011,-6.97713 -1.02206,-0.32016 -2.10604,-0.33505 -3.16739,-0.34189 z"
       id="path65"
       transform="matrix(7.5,0,0,-7.5,0,5120)" />
    <path
       style="display:inline;fill:#ff0066;fill-opacity:1;stroke-width:1"
       d="m 437.84819,54.99505 c -3.10761,-0.0374 -4.45814,4.073635 -2.26486,6.120462 6.47259,7.730649 13.03497,15.397871 18.85891,23.645214 2.73671,3.172336 5.36235,8.419185 10.28796,7.872112 3.90596,-1.197274 8.32979,-1.679136 12.27805,-0.465346 6.51657,3.975827 7.06057,12.300348 8.2077,19.075948 0.98871,8.58127 3.49155,16.96878 3.14461,25.63445 0.10318,2.56591 -1.84568,5.89021 1.08416,7.58333 2.67103,0.99141 5.62756,-0.17025 8.42637,0.19215 21.34449,-0.30544 42.73805,0.047 64.05299,-0.26933 3.38842,-0.39768 3.34243,-4.90249 0.81084,-6.48497 -30.48354,-34.21559 -68.77834,-61.575657 -111.50848,-78.291982 -4.42311,-1.502652 -8.70658,-4.106509 -13.37825,-4.612038 z"
       id="path61"
       transform="matrix(7.5,0,0,-7.5,0,5120)" />
    <path
       style="display:inline;fill:#ff0066;fill-opacity:1;stroke-width:1"
       d="m 519.98845,141.49257 c -10.05151,0.10167 -20.12241,-0.11275 -30.16172,0.32756 -3.01971,0.74671 -2.92061,4.43745 -1.41946,6.55763 4.50535,12.25761 5.75053,25.64821 11.89285,37.32236 6.33142,14.16586 14.23006,27.66729 19.3682,42.34278 3.99699,12.00683 3.28826,24.8324 3.06334,37.29207 -0.34402,7.55886 -4.57755,14.16286 -8.01,20.66543 -3.2914,5.06121 -6.89124,10.90039 -12.87513,12.97732 -4.07228,0.93117 -5.3267,-5.84217 -9.54372,-4.32013 -3.01872,2.63974 -4.58201,6.59426 -7.53631,9.37129 -10.47865,11.51136 -22.75204,22.06572 -37.27805,27.81436 -4.08323,2.13686 -5.79058,6.80268 -9.10644,9.82425 -6.86111,7.25474 -14.74084,15.15738 -25.15511,16.40099 -1.53673,0.18894 -3.96151,-0.79605 -2.87129,-2.73432 1.85256,-5.59453 5.38974,-10.57915 6.78053,-16.30281 0.25816,-3.19821 -3.73398,-4.62228 -6.06023,-2.82426 -6.73978,3.07207 -13.40344,6.72711 -20.78828,7.89609 -3.25835,0.96401 -2.4512,5.19929 -0.0206,6.69378 7.58587,8.02669 14.82275,16.41124 22.5812,24.25832 7.79545,5.08381 16.53904,8.53665 24.7716,12.83773 12.17121,6.22226 24.84891,11.61449 36.30931,19.12267 13.31912,10.17268 21.23458,25.38719 30.04368,39.2566 8.79463,14.07147 17.44942,28.24448 26.57509,42.10066 10.76368,14.81777 23.88241,27.72682 34.94471,42.29703 1.23906,1.73485 1.00668,4.65747 3.61716,5.23515 3.95901,0.78244 6.12464,-3.60601 8.38274,-6.06935 30.43161,-40.62156 53.20349,-87.78374 61.21547,-138.17568 7.27135,-45.36061 3.247,-92.22551 -9.92793,-136.14649 -7.29774,-26.28002 -18.99525,-51.19773 -33.69097,-74.13551 -8.65637,-13.59052 -17.93927,-26.90345 -28.60596,-38.96946 -2.79202,-1.89344 -6.52267,-0.49053 -9.71245,-0.92183 -12.26073,0.002 -24.52146,-0.006 -36.78218,0.006 z"
       id="path60"
       transform="matrix(7.5,0,0,-7.5,0,5120)" />
    <path
       style="display:inline;fill:#ff0066;fill-opacity:1;stroke-width:1"
       d="m 71.241749,468.99505 c -3.236501,2.80589 0.482431,6.47741 1.615203,9.38446 3.966238,7.58825 7.663535,15.36835 11.798384,22.8364 1.931572,2.80481 5.319203,0.61266 6.89931,-1.40728 5.538436,-5.48047 11.811504,-10.30339 19.120364,-13.16292 9.22346,-4.15144 18.99542,-7.40604 27.62132,-12.6768 2.71541,-2.17844 -0.21652,-6.36633 -3.32356,-5.46898 -20.77972,0.067 -41.607745,-0.19267 -62.357309,0.0795 -0.457904,0.13854 -0.915808,0.27708 -1.373712,0.41562 z"
       id="path59"
       transform="matrix(7.5,0,0,-7.5,0,5120)" />
    <path
       style="display:inline;fill:#ff0066;fill-opacity:1;stroke-width:1"
       d="m 235.36551,59.30363 c -6.98697,2.23455 -13.50757,5.832142 -20.21699,8.803631 -29.76333,14.11316 -57.5694,32.629229 -81.47313,55.336949 -20.65708,20.42602 -38.025865,44.03597 -52.719944,69.04837 -18.554374,31.34059 -30.137579,66.39096 -36.874602,102.06587 -5.864588,30.66824 -5.014183,62.28292 -0.725515,93.09368 4.275263,28.37576 13.030158,56.02759 25.255232,81.96668 2.260011,3.2368 6.767409,1.35504 10.086634,1.85809 21.113779,-0.0822 42.276175,0.16369 63.359735,-0.12251 4.25023,-1.71513 7.3884,-5.46127 10.66337,-8.59531 7.31521,-7.74454 14.17338,-15.9803 20.59902,-24.44063 1.21704,-3.7734 0.23367,-7.96659 0.55273,-11.91168 0.007,-7.81713 0.0465,-16.39728 5.33174,-22.74918 2.16655,-3.30575 5.41807,-5.98948 7.10224,-9.52586 0.72369,-3.4128 -3.08345,-5.40139 -4.65639,-7.97986 -9.16113,-10.78324 -18.36531,-21.48845 -26.58997,-33.02441 -15.08181,-17.4851 -32.80178,-32.48594 -48.03162,-49.83456 -3.25692,-3.24646 -4.26546,-9.03009 -9.324256,-10.10973 -9.452703,-2.15699 -18.337756,-7.35843 -24.138612,-15.22195 -2.168609,-2.6921 -3.393063,-6.00502 -2.959571,-9.49422 -0.136953,-7.04862 -0.13288,-14.45103 2.680215,-20.958 4.291546,-11.41894 9.140325,-22.83421 10.290873,-35.11065 -0.20474,-2.34299 0.808932,-3.26081 3.033863,-2.58152 10.261312,0.84328 19.708548,5.69557 28.162538,11.11881 10.84826,7.03734 18.91738,18.60265 20.38845,31.59507 0.45567,5.34761 0.89251,10.98646 4.21716,15.45856 13.33287,19.51943 24.45554,40.4325 37.85726,59.93317 7.70127,10.78706 17.02138,20.28615 25.00166,30.86304 5.42168,6.72762 10.54876,13.74589 16.07126,20.35655 2.72304,1.97912 6.48136,0.66134 9.6489,1.16216 2.60597,0.4096 6.47655,-0.84164 7.84997,2.24532 1.50968,2.50564 4.68976,4.5717 7.48102,2.66831 7.14765,-4.67568 14.53373,-9.07584 20.83534,-14.9162 6.64876,-6.05624 13.76421,-11.7868 19.31813,-18.90311 1.95969,-2.68005 -0.62506,-5.92462 -3.51898,-6.18564 -7.8406,-1.89936 -14.95947,-5.81636 -22.37459,-8.85396 -3.16023,-0.83044 -5.16487,3.03006 -3.47855,5.50743 1.95638,5.10416 4.77429,9.98214 6.52558,15.0099 -3.89844,1.41183 -7.94483,-1.04035 -11.34819,-2.81683 -9.52062,-5.62569 -17.01306,-14.05427 -23.07425,-23.1906 -2.08594,-3.20482 -5.83678,-4.54262 -9.5033,-4.71452 -8.71891,-2.54072 -15.30494,-9.42249 -21.16337,-16.0264 -11.57948,-13.81369 -19.98244,-31.52517 -20.28961,-49.75495 -0.57719,-12.35589 3.68377,-24.22397 3.57014,-36.57096 -0.25606,-3.68485 -5.95763,-3.857 -6.63037,-0.29538 -3.76495,12.17408 -7.2953,24.73716 -7.16089,37.58086 0.4342,10.39122 5.02731,19.96185 6.53301,30.14521 0.005,1.70314 -2.19463,-1.88619 -2.81436,-2.40346 -4.11702,-5.43353 -7.61318,-11.8499 -7.26897,-18.87707 -0.38808,-11.97869 -0.665,-24.52208 3.16777,-36.17217 4.38825,-15.91692 11.11169,-31.16435 17.3716,-46.52049 6.71672,-17.57157 12.16577,-35.64523 17.35895,-53.68605 0.55344,-3.36295 -3.41305,-4.13014 -5.95297,-3.76513 -7.89039,-0.41022 -15.80173,0.21981 -23.4404,-1.08305 -3.67446,-1.35193 -7.46878,-2.74878 -10.18978,-5.64522 -0.48034,-1.23782 2.09173,-0.7308 2.91813,-1.0369 9.0873,-0.40575 18.30101,-2.00815 26.25053,-6.66915 11.15617,-5.76832 21.78378,-13.35153 28.55059,-24.155754 6.17242,-9.437616 13.61187,-17.926695 20.68092,-26.673672 1.62357,-2.111769 -0.11342,-5.44942 -2.79538,-5.240924 z"
       id="path58"
       transform="matrix(7.5,0,0,-7.5,0,5120)" />
    <path
       style="display:inline;fill:#ffaaee;fill-opacity:1;stroke-width:1"
       d="m 192.18853,178.66419 c -2.37142,0.40725 -2.96617,3.00677 -3.23257,5.02168 -1.39187,4.86019 -3.84278,9.35926 -4.97174,14.30968 -3.15903,12.53483 -3.73031,25.53866 -4.1147,38.40457 -0.1711,11.90477 -0.19913,23.87274 1.34459,35.69889 1.4878,10.78618 5.91421,21.08075 12.5396,29.70586 5.19824,6.79618 10.92686,13.33033 17.81897,18.45975 1.97392,1.26516 4.22034,2.95607 6.69547,2.46517 2.25605,-0.55102 3.32306,-3.05632 2.81395,-5.19266 -0.69951,-3.68442 -1.49189,-7.0891 -1.69087,-10.83317 -1.49695,-20.62743 -1.56372,-41.26467 -2.15674,-61.93373 -0.10332,-2.20368 0.33594,-4.8059 -1.59617,-6.38687 -5.3501,-6.58364 -11.30093,-12.84661 -15.2233,-20.44153 -2.86178,-5.93455 -3.73865,-12.57286 -4.57385,-19.03795 -0.65443,-5.40593 -0.25502,-10.84797 0.17946,-16.25 0.27636,-2.19846 -1.4952,-4.41366 -3.8321,-3.98969 z"
       id="path56"
       transform="matrix(7.5,0,0,-7.5,0,5120)" />
    <path
       style="display:inline;fill:#ffaaee;fill-opacity:1;stroke-width:1"
       d="m 457.81147,223.06436 c -2.12054,0.21822 -3.0045,2.43205 -2.96947,4.31064 -0.26689,4.92373 -0.55465,9.93626 0.32196,14.81099 0.65332,2.52278 4.35695,3.06841 5.73703,0.86847 1.91696,-3.32153 1.94378,-7.38196 1.58306,-11.10466 -0.37496,-2.57939 -0.38631,-5.40657 -1.8211,-7.66845 -0.6688,-0.8514 -1.77185,-1.33165 -2.85148,-1.21699 z"
       id="path55"
       transform="matrix(7.5,0,0,-7.5,0,5120)" />
    <path
       style="display:inline;fill:#ffaaee;fill-opacity:1;stroke-width:1"
       d="m 350.3224,27.932468 c -11.24858,0.119232 -22.88643,1.942077 -32.53093,8.093121 -5.63998,3.374374 -10.11868,8.252176 -15.20753,12.325462 -1.13946,1.021259 -2.53092,-0.465753 -3.7584,-0.638262 3.40361,-0.853857 6.63468,-4.493035 5.53842,-8.117726 -1.37326,-3.102841 -5.30075,-2.402467 -7.98256,-1.885917 -18.19481,3.253707 -34.4486,13.314479 -48.11955,25.409919 -9.96205,9.19767 -19.64675,19.004398 -26.59998,30.739906 -0.91613,1.276598 -1.03301,2.984122 -1.69799,4.265514 -5.4013,4.516085 -11.07491,8.722395 -16.7156,12.940865 -4.47811,3.38303 -9.32922,6.19917 -14.18648,8.98178 -2.09527,0.99128 -3.13881,4.22247 -0.88149,5.59258 2.28189,1.35677 5.01123,-0.23647 7.35369,-0.82048 4.73391,-1.62658 9.41951,-3.58992 13.5094,-6.51828 -6.72054,19.32433 -13.4017,38.73048 -17.93671,58.70561 -0.83839,2.14671 0.72084,5.06003 3.23322,4.60446 2.89616,-0.36017 3.07612,-3.95922 3.96329,-6.12777 2.12684,-7.8786 4.94529,-15.41539 8.5513,-22.74425 6.86992,-14.14831 14.40626,-28.24495 23.72474,-41.11531 7.76386,-10.38323 16.07196,-20.693024 25.58101,-29.646873 6.03385,-5.393131 12.71155,-10.060015 19.80101,-13.958046 -15.04651,10.484993 -28.51464,23.232126 -40.02563,37.498249 -9.18843,11.55181 -15.62829,24.95217 -22.10501,38.13032 -5.62878,12.00245 -11.2822,24.23371 -13.40085,37.43151 -1.30252,7.71332 -2.49938,15.67096 -1.2036,23.46054 0.31151,2.2267 2.82621,4.35016 4.91641,2.82023 2.64726,-2.08581 2.41316,-5.91628 3.1348,-8.93332 0.66168,-4.26981 1.28525,-8.55068 2.2876,-12.75768 -0.85513,17.79003 1.81815,36.09397 10.1404,52.01105 4.22471,8.79721 10.67796,16.30616 17.89125,22.79 2.16903,1.97013 5.77514,-0.25625 5.24671,-3.06005 -0.93784,-6.30329 -3.38478,-12.27247 -4.66096,-18.51254 -2.55315,-10.81646 -4.01623,-21.96952 -4.2508,-32.97032 1.2299,2.69905 5.48196,1.98414 6.01099,-0.85237 3.15217,-11.15153 7.97039,-21.66508 12.35395,-32.36064 5.82517,-13.7991 12.07673,-27.4151 18.60745,-40.89122 1.72604,-4.02478 3.1874,-8.16078 4.44469,-12.35474 -0.99784,15.66963 -0.58661,31.52119 2.18959,46.99985 0.96799,3.91443 1.49741,8.50189 4.68662,11.31779 2.96666,1.71535 7.18635,1.54462 9.26357,4.66504 0.95553,1.23188 -1.19459,1.81279 -1.44864,2.94336 -1.7727,2.95948 1.05913,5.85159 2.63917,8.16952 9.21696,11.721 21.86274,20.44963 35.41799,26.45129 7.18305,3.03991 14.81809,5.5728 22.72192,5.23272 2.27413,0.0639 5.55291,-0.0715 6.03376,-2.89787 0.15175,-3.09265 -2.11778,-5.66265 -3.21971,-8.41336 -6.40933,-12.75008 -11.71931,-26.10081 -15.80625,-39.78658 5.30558,9.95776 10.90539,19.83438 17.75118,28.82277 1.8256,2.03028 5.18418,0.5465 5.55592,-1.98072 1.98254,-7.28719 1.50376,-14.94525 1.92642,-22.4188 0.34499,-11.47043 0.30752,-22.92513 0.71123,-34.36327 2.79192,7.37126 6.15989,14.62708 11.30502,20.67878 3.49187,4.07345 6.59029,8.87165 11.43325,11.46716 5.31486,2.52477 11.85629,1.80215 16.6526,5.51858 -2.59407,1.17133 -6.25624,0.47398 -8.01913,3.10497 -1.17797,2.28473 0.87474,4.2911 2.77747,5.23265 6.24465,3.90046 13.22635,6.75523 20.46779,8.12303 2.12548,0.54525 5.06174,0.24895 5.47483,-2.38153 0.18307,-7.62827 -2.0213,-15.05505 -3.56817,-22.45942 -1.09474,-4.64011 -2.27616,-9.25961 -3.53032,-13.85914 7.5677,23.4984 11.14708,48.23316 11.37147,72.76315 -0.007,10.09475 -0.393,19.96905 -1.8722,29.86418 -1.25301,2.26469 -0.0396,5.63297 2.74266,5.81088 0.46128,1.07079 0.0287,2.97662 0.1243,4.36438 -0.54174,21.5679 -3.12601,43.00971 -7.71511,64.04307 -0.66481,3.61232 -2.09788,7.17102 -2.23342,10.91044 0.092,2.97741 3.9959,4.03978 5.95265,2.05481 12.38805,-10.40267 20.72691,-25.13282 24.29908,-40.83492 4.52685,-19.3747 3.73163,-39.43284 3.58092,-59.17842 C 452.19997,213.93284 448.87141,178.0168 437.52349,144.17277 431.86158,127.62423 424.3446,111.55493 414.02863,97.375594 403.6839,84.283248 390.74885,73.328406 376.6359,64.487962 c -1.14669,-0.698242 1.50335,0.731378 1.97794,0.983055 12.95212,6.78916 23.37092,17.259369 33.64843,27.434403 3.33523,2.917814 6.36241,7.038809 11.02107,7.73419 3.18499,0.0282 6.448,-0.25906 9.51082,0.87442 4.53428,1.49046 9.14336,3.46209 12.4019,7.01052 1.66521,1.87445 4.82316,2.82065 6.73444,0.75495 2.45737,-2.87828 3.81964,-6.55726 5.43491,-9.925992 0.7447,-2.637723 -1.77819,-4.70917 -2.75934,-6.958804 C 448.59137,81.701249 439.78169,72.9811 431.12166,64.434233 421.21289,55.01834 410.7469,45.75723 398.11754,40.168048 c -10.43172,-5.123341 -22.35376,-8.200177 -33.96105,-5.935795 1.71816,-1.994259 -0.0759,-4.963305 -2.52971,-5.1198 -3.65242,-1.08094 -7.52414,-1.163791 -11.30438,-1.179985 z"
       id="path54"
       transform="matrix(7.5,0,0,-7.5,0,5120)" />
    <path
       style="display:inline;fill:#c6afe9;stroke-width:0.999997"
       d="m 381.23791,353.78559 c -2.94442,1.55709 -2.42073,5.89155 -4.01511,8.5623 -7.02951,18.35424 -17.68654,35.0196 -26.89999,52.30798 -13.853,25.58884 -29.56813,50.09541 -45.70914,74.30263 -3.61829,2.74276 -0.41411,6.16773 1.51949,8.76289 3.45041,4.27869 5.86781,9.86421 10.54216,12.92289 4.24426,-0.6553 7.33987,-4.53989 11.12351,-6.45381 13.32451,-8.46264 27.9001,-15.00009 41.68374,-22.67006 13.79252,-24.95079 25.95992,-51.02561 35.17299,-78.07325 2.27274,-7.59689 5.12311,-15.46217 4.85077,-23.41525 -8.31794,-8.62774 -16.76014,-17.42772 -25.82856,-25.37469 -0.69533,-0.54372 -1.51044,-1.04097 -2.43986,-0.87163 z"
       id="path44"
       transform="matrix(7.5,0,0,-7.5,0,5120)" />
    <path
       style="display:inline;fill:#c6afe9;stroke-width:0.999997"
       d="m 290.16582,354.44369 c -6.83012,5.1205 -12.48237,11.80269 -18.56097,17.81536 -3.33854,3.40911 -7.07603,7.32569 -6.44797,12.52256 0.0213,18.85384 5.1501,37.19325 8.45386,55.63309 1.28413,9.48789 5.16175,18.37281 10.67274,26.15346 4.32495,5.8733 7.94446,12.48249 13.21945,17.54678 3.87281,2.27658 6.36049,-3.08922 8.13873,-5.56817 6.42669,-10.04718 13.25902,-19.96983 18.3451,-30.77548 2.21013,-7.31636 -2.75841,-14.2594 -5.03143,-20.93083 -10.14079,-22.16886 -17.6087,-45.32998 -24.9856,-68.51235 -0.71322,-1.62086 -1.41288,-4.4296 -3.80391,-3.88442 z"
       id="path45"
       transform="matrix(7.5,0,0,-7.5,0,5120)" />
    <path
       style="display:inline;fill:#c6afe9;stroke-width:1"
       d="m 290.18857,510.3199 c -2.4434,2.69467 -3.83275,6.23879 -5.84732,9.27906 -5.72006,9.91218 -11.84492,19.59713 -17.34426,29.63223 -0.9562,2.1114 2.06162,3.80206 3.52736,2.13941 9.57564,-8.33803 17.85856,-18.10204 27.79225,-26.0364 1.5242,-1.28773 4.66355,-2.3853 3.62091,-4.91469 -3.02358,-3.47054 -6.39773,-6.69972 -9.72582,-9.8535 -0.62945,-0.54883 -1.27886,-0.39384 -2.02312,-0.24611 z"
       id="path46"
       transform="matrix(7.5,0,0,-7.5,0,5120)" />
    <path
       style="display:inline;fill:#ffaaee;stroke-width:1"
       d="m 452.15745,181.27371 c -2.48578,0.3853 -1.91613,3.3285 -1.4387,5.04488 1.40253,5.8976 1.58305,12.04735 3.18955,17.88708 0.74693,2.16247 3.72676,1.70685 4.57402,-0.1371 2.67713,-4.64593 4.31174,-9.90652 5.13819,-15.18996 0.45598,-2.1478 -1.29087,-4.33651 -3.54137,-4.05537 -2.94963,-0.40863 -5.03839,-3.19274 -7.92169,-3.54953 z"
       id="path43"
       transform="matrix(7.5,0,0,-7.5,0,5120)" />
    <path
       style="display:inline;fill:#ffaaee;stroke-width:0.999997"
       d="m 488.62541,177.84488 c -6.52712,1.76951 -13.53958,0.10184 -20.0264,1.58911 -2.95766,9.75613 -4.38463,20.2315 -8.61002,29.73936 -2.36535,5.93536 5.55568,10.38823 4.71728,16.60883 0.24591,9.33933 0.8693,19.11198 -3.77192,27.61321 -5.25016,10.17183 -3.22335,21.97509 -4.37649,32.97059 -0.34333,11.03216 -1.84358,22.25517 -3.79713,33.14558 1.0622,4.14746 5.72295,1.45598 7.31683,-0.85314 13.83698,-13.80241 29.23746,-27.02072 38.32508,-44.64356 8.13766,-15.83238 2.22844,-34.00338 -0.65512,-50.38285 -0.49741,-2.97198 -1.65635,-7.56992 -1.69306,-9.68647 9.4341,13.521 15.87012,29.4295 15.76567,46.10397 0.65637,3.50945 -0.50642,9.79379 3.87789,10.52475 4.57119,-6.4922 3.25031,-15.52314 2.88087,-23.16574 -2.56803,-22.40053 -14.16449,-42.44014 -24.31428,-62.03048 -1.62327,-2.52935 -1.66825,-7.58847 -5.6392,-7.53316 z"
       id="path33"
       transform="matrix(7.5,0,0,-7.5,0,5120)" />
    <path
       style="display:inline;fill:#ffaaee;stroke-width:0.999997"
       d="m 422.21122,287.57426 c -4.56933,5.23345 -7.32734,12.06178 -12.60442,16.85679 -10.81308,11.91604 -24.24124,20.94475 -37.87413,29.26697 -3.11624,1.35304 -5.07165,6.76757 -0.65676,7.72772 7.54396,0.19784 15.39769,-0.56132 22.67657,-2.80528 14.03716,-5.39769 25.8714,-17.72701 29.65346,-32.39109 0.85961,-5.78353 2.20721,-11.73608 1.58251,-17.5726 -0.45235,-1.21617 -1.67622,-1.36589 -2.77723,-1.08251 z"
       id="path34"
       transform="matrix(7.5,0,0,-7.5,0,5120)" />
    <path
       style="display:inline;fill:#ffaaee;stroke-width:0.999997"
       d="m 246.74917,294.57921 c -0.17518,9.75729 2.03764,20.34594 7.56766,28.68152 9.42323,12.67045 25.72277,19.23305 41.33436,17.81743 3.04001,-0.30249 10.31651,-0.0817 8.52406,-4.55397 -8.98311,-6.67388 -19.95692,-10.37033 -28.41568,-17.91193 -9.61631,-7.40115 -17.63871,-16.81056 -26.85848,-24.49896 -0.77209,-0.7835 -1.43462,0.31043 -2.15192,0.46591 z"
       id="path35"
       transform="matrix(7.5,0,0,-7.5,0,5120)" />
    <path
       style="display:inline;fill:#ffaaee;stroke-width:0.999997"
       d="m 221.90099,254.55116 c -1.94281,14.43223 0.39324,29.23667 1.65194,43.70931 2.11193,18.15283 10.25811,35.98336 23.64839,48.49861 4.75268,0.3617 2.19715,-5.44939 1.62871,-8.07261 -5.25788,-23.24368 -6.62304,-47.22599 -9.73604,-70.71107 -5.06048,-4.76626 -9.87729,-10.54897 -15.77221,-14.18167 l -0.74556,0.39746 z"
       id="path36"
       transform="matrix(7.5,0,0,-7.5,0,5120)" />
    <path
       style="display:inline;fill:#ffaaee;stroke-width:1"
       d="m 503.09714,279.95098 c -1.80692,0.4163 -2.62891,2.39576 -3.08221,4.01132 -0.4781,1.57714 -0.16483,3.77599 1.6432,4.31936 1.80418,0.51238 2.9763,-1.34955 3.55654,-2.76892 0.66207,-1.6215 1.03824,-3.96856 -0.53076,-5.19006 -0.44975,-0.33844 -1.03567,-0.45123 -1.58677,-0.3717 z"
       id="path40"
       transform="matrix(7.5,0,0,-7.5,0,5120)" />
    <path
       style="display:inline;fill:#8d5fd3;stroke-width:1"
       d="m 370.79145,347.43855 c -1.76295,-0.11925 -3.65141,0.97234 -3.91271,2.82493 -0.13236,1.88889 0.59436,3.80383 1.61695,5.37156 1.18464,1.84457 3.81495,2.23766 5.61105,1.06503 1.60263,-1.01727 3.1898,-2.30483 4.04107,-4.0361 0.77806,-1.81066 -0.62955,-3.73302 -2.35264,-4.29194 -1.57827,-0.65217 -3.30207,-0.92487 -5.00372,-0.93348 z"
       id="path30"
       transform="matrix(7.5,0,0,-7.5,0,5120)" />
    <path
       style="display:inline;fill:#8d5fd3;stroke-width:1"
       d="m 301.6178,347.43476 c -3.17812,0.0372 -6.82648,1.31899 -8.18453,4.42817 -0.62767,1.56118 0.76996,3.20036 2.3579,3.24645 2.49909,0.26508 5.04719,0.25616 7.47275,0.99648 1.62186,0.43699 3.51979,-0.51903 3.79078,-2.25522 0.33299,-1.86694 0.3381,-4.23341 -1.42909,-5.40919 -1.1481,-0.84023 -2.62658,-1.00018 -4.00781,-1.00669 z"
       id="path31"
       transform="matrix(7.5,0,0,-7.5,0,5120)" />
    <path
       style="display:inline;fill:#8d5fd3;fill-opacity:1;stroke-width:1"
       d="m 219.60891,453.38366 c -2.70237,2.48648 -0.24545,6.37877 -0.22753,9.3746 0.95189,6.99232 1.85628,13.96963 0.84964,21.12375 -1.24798,4.9405 -5.16473,9.13284 -4.92821,14.4472 -2.51859,-2.12127 -5.27707,0.49621 -6.1873,2.88531 -5.37766,10.37959 -10.78332,20.82081 -15.49958,31.48866 -0.5493,3.24172 2.82031,5.44542 4.00371,8.25309 7.33426,13.36246 13.97406,27.65627 19.3082,42.06553 3.76323,10.99299 6.37797,22.38868 7.31473,34.01368 0.9033,5.1829 6.88312,6.43102 11.02882,8.0455 3.11491,0.64964 6.81861,2.78228 9.79049,0.73338 2.86644,-2.67875 -0.92552,-5.95022 -0.52874,-9.03073 -0.3786,-10.09398 0.3533,-20.40608 4.27462,-29.83313 3.52051,-8.79111 6.46033,-17.79267 9.36134,-26.7937 5.86075,-15.54523 16.59239,-28.52143 23.94421,-43.31174 1.56511,-3.66941 4.48118,-7.283 4.10616,-11.4482 -1.77363,-4.06955 -5.48859,-6.95898 -8.17483,-10.42797 -11.50663,-12.86498 -23.1166,-25.64461 -34.67748,-38.45651 -3.16023,-3.89318 -8.58104,-2.89438 -12.98959,-3.34207 -3.55615,0.14056 -7.33217,-0.79104 -10.76866,0.21335 z m -2.42574,53.80199 c 1.98372,11.47898 3.509,23.03483 5.033,34.60808 -2.01609,-11.70161 -3.98954,-23.50151 -5.14604,-35.22112 l 0.0766,0.41544 z"
       id="path52"
       transform="matrix(7.5,0,0,-7.5,0,5120)" />
    <path
       style="display:inline;fill:#8d5fd3;stroke-width:1"
       d="m 489.88965,439.82742 c -7.10699,9.80337 -11.95467,21.47435 -18.60648,31.5771 0.56329,5.41717 8.94656,5.63255 12.75702,9.18186 7.94364,4.61302 13.25815,12.20887 18.33234,19.60649 4.96896,1.61172 6.86463,-6.2871 10.14301,-8.87673 3.0071,-3.91449 8.32042,-8.82646 3.33403,-13.52432 -7.9893,-12.48752 -15.36958,-25.43194 -23.91328,-37.53034 -0.53188,-0.61628 -1.33929,-0.41968 -2.04664,-0.43406 z"
       id="path24"
       transform="matrix(7.5,0,0,-7.5,0,5120)" />
    <path
       style="display:inline;fill:#8d5fd3;stroke-width:1"
       d="m 417.71341,386.96477 c -5.49982,4.49386 -5.07806,13.38219 -8.27758,19.47461 -8.38538,23.91963 -19.86911,46.55243 -31.03102,69.27779 2.06577,5.40051 9.77477,-0.77901 14.02078,-0.49941 23.33317,-6.7704 47.73671,-5.00395 71.67449,-5.03609 8.07722,-1.01783 9.48743,-11.30779 14.00636,-16.66817 2.99454,-6.80905 9.21068,-12.99461 10.02127,-20.43743 -5.6072,-12.59759 -17.47382,-20.57409 -29.57223,-26.23442 -13.28593,-6.80987 -26.23325,-14.64581 -40.21197,-19.90722 z"
       id="path25"
       transform="matrix(7.5,0,0,-7.5,0,5120)" />
    <path
       style="display:inline;fill:#8d5fd3;fill-opacity:1;stroke-width:1"
       d="m 521.87541,486.21081 c -2.86096,0.28527 -4.66316,2.89528 -6.69232,4.63856 -4.06831,4.07637 -8.2471,8.08004 -12.15597,12.29222 -1.38607,1.89461 0.0453,4.24241 0.24376,6.30348 0.92082,3.87957 1.54139,7.86228 1.44455,11.81274 0.26823,9.08444 -1.50374,18.39523 -4.59043,27.0681 -1.93623,5.61352 -5.21087,10.68908 -6.88201,16.39439 -0.73005,2.45537 2.06711,4.90293 4.38449,3.71947 2.76171,-1.64757 4.70718,-4.34728 7.24831,-6.2985 7.79132,-6.48653 16.54123,-11.87512 25.90763,-15.76627 -8.34404,6.21707 -17.73819,10.74078 -25.95132,17.20875 -4.42635,3.33568 -7.84961,7.79925 -12.27971,11.11675 -7.14816,5.12766 -13.3677,11.4051 -19.82338,17.3493 -7.11785,6.64719 -13.95568,13.53937 -21.4984,19.68535 -1.46946,1.0108 -2.97705,2.13874 -3.80322,3.75371 -3.95137,1.56704 -6.88478,4.80771 -10.6213,6.76714 -2.27207,1.52151 -5.08373,2.32051 -6.98637,4.33971 -1.47971,1.88824 0.0603,4.95065 2.45916,4.88449 3.10698,-0.31945 5.98692,-1.75683 8.9253,-2.7449 24.07116,-9.24916 46.78214,-21.77776 68.05816,-36.29938 8.69944,-5.97397 17.53182,-11.79512 25.7752,-18.39632 9.07733,-7.67825 17.73001,-15.89018 25.68358,-24.73184 2.23102,-2.54117 4.82214,-5.50338 4.24217,-9.15842 -0.76743,-4.80372 -4.15736,-8.5996 -7.02187,-12.33127 -7.8722,-9.46479 -16.34938,-18.27745 -23.8275,-28.02623 -3.18345,-3.96797 -5.98301,-8.23324 -9.15971,-12.19984 -0.76907,-0.87656 -1.90277,-1.42533 -3.0788,-1.38119 z"
       id="path53"
       transform="matrix(7.5,0,0,-7.5,0,5120)" />
    <path
       style="display:inline;fill:#8d5fd3;fill-opacity:1;stroke-width:1"
       d="m 172.18954,445.99564 c -2.28563,0.51529 -3.34727,2.88076 -4.61311,4.61137 -3.83,5.48409 -8.71313,10.11439 -13.43153,14.81715 -4.83998,4.60674 -9.73852,9.21702 -15.24559,13.02579 -5.25929,3.08509 -10.99373,5.24046 -16.58534,7.63293 -6.21686,2.59806 -12.56193,4.99713 -18.41099,8.37379 -4.236999,3.07275 -7.660396,7.23675 -10.062851,11.87671 -1.084834,2.24244 -2.28392,5.00986 -0.901969,7.39487 2.170303,3.51904 4.790698,6.74189 7.25486,10.05749 5.40854,6.9584 10.81579,13.94709 16.8513,20.37956 0.9921,1.27976 2.87915,2.07285 4.3471,1.10723 1.48512,-0.76113 1.71056,-2.62703 1.3905,-4.10947 -0.36578,-1.99805 -0.37907,-4.09711 0.14994,-6.09501 1.25294,-5.43973 2.97821,-10.82431 5.59238,-15.77192 0.3642,-0.83504 1.04073,-1.72037 2.08428,-1.46439 -0.28211,1.85949 0.47167,4.11525 2.45532,4.65629 2.32163,0.636 4.32511,-1.15783 6.12829,-2.33679 3.64987,-2.73314 7.53518,-5.25347 10.63362,-8.63463 1.63396,-1.72183 2.83482,-4.47175 1.46564,-6.69954 -1.5524,-2.41128 -4.67202,-2.819 -7.27796,-3.1977 -6.08848,-0.72569 -12.31103,-0.14315 -18.20122,1.53378 3.49185,-3.31417 8.27094,-5.33882 13.1188,-5.08908 4.01511,-0.11991 7.9328,0.83871 11.79189,1.82402 2.99792,0.61876 6.31022,1.89538 9.24717,0.36779 1.99749,-1.13329 3.91913,-3.08775 4.0332,-5.50137 1.93416,-1.51328 3.43821,-3.5134 5.09848,-5.31386 3.7505,-4.42241 7.38291,-9.09137 9.67375,-14.45917 1.07578,-3.12501 0.49058,-6.50777 0.0578,-9.69773 -0.97115,-5.66127 -1.91454,-11.33335 -3.06946,-16.95909 -0.39846,-1.55075 -1.99593,-2.59235 -3.57434,-2.32902 z"
       id="path51"
       transform="matrix(7.5,0,0,-7.5,0,5120)" />
    <path
       style="display:inline;fill:#8d5fd3;fill-opacity:1;stroke-width:1"
       d="m 189.81353,538.50908 c -2.18308,0.12931 -3.29546,2.33072 -3.46452,4.26856 -2.94798,7.9559 -6.80812,15.39231 -10.30973,23.11718 -2.78211,6.24533 -5.85535,12.4015 -7.95388,18.92078 -0.95471,2.93987 1.61419,5.3078 3.52128,7.1378 3.0731,2.68618 6.29431,5.53287 10.26419,6.76071 2.42436,0.67986 4.37299,-1.53331 4.9373,-3.67244 1.66368,-5.30562 2.20675,-10.87935 2.88902,-16.375 0.10122,6.1513 -0.0405,12.46974 -1.97374,18.36514 -1.04625,2.02846 -0.39712,4.52638 1.35906,5.93808 4.09579,3.37934 9.01491,5.55696 13.62463,8.12922 4.029,2.05381 7.98483,4.30428 12.07652,6.20203 2.07517,0.8725 4.30295,-1.20509 3.99166,-3.33894 0.47229,-9.05466 -2.30714,-17.83767 -4.70133,-26.45621 -3.98118,-13.28122 -8.49905,-26.48213 -14.78232,-38.87068 -1.98478,-3.52184 -3.86088,-7.48801 -7.41213,-9.69307 -0.63278,-0.32923 -1.35294,-0.49195 -2.06601,-0.43316 z"
       id="path50"
       transform="matrix(7.5,0,0,-7.5,0,5120)" />
    <path
       style="display:inline;fill:#8d5fd3;fill-opacity:1;stroke-width:1"
       d="m 255.84633,383.18833 c -2.08102,0.19736 -3.96713,1.2228 -5.88016,1.99216 -5.29025,2.39714 -10.52792,4.94038 -15.54102,7.87913 -1.46031,0.88369 -3.2447,1.98071 -3.3105,3.89306 -0.0562,1.84109 1.28836,3.29867 2.13976,4.81369 2.34222,3.63015 4.84611,7.43288 8.69732,9.61606 1.64993,1.02302 3.59646,1.27466 5.40223,1.88696 1.96545,0.65009 3.86707,2.22154 4.06818,4.39756 0.21967,2.43806 -0.44478,4.94006 0.32188,7.32501 1.18059,3.91789 3.96897,7.03922 6.31229,10.29992 2.14127,2.78777 4.15387,5.68257 6.44307,8.3521 1.17732,1.45824 3.67487,1.47366 4.77574,-0.0767 1.0701,-1.42939 0.67425,-3.33339 0.51015,-4.97961 -2.2607,-11.96333 -4.87411,-23.85847 -7.07806,-35.83331 -0.8474,-4.37649 -1.49775,-8.68742 -2.32959,-13.05956 -0.4746,-1.90257 -0.73836,-4.02905 -2.09936,-5.5401 -0.63297,-0.64169 -1.53247,-0.99317 -2.43193,-0.96637 z"
       id="path49"
       transform="matrix(7.5,0,0,-7.5,0,5120)" />
    <path
       style="display:inline;fill:#803300;stroke-width:1"
       d="m 206.37603,376.80631 c -1.09999,0.0615 -2.37787,-10e-4 -3.22245,0.83545 -0.88117,0.82787 -0.81493,2.37802 0.11852,3.1405 0.95744,0.8099 2.25873,1.10713 3.49059,0.99043 1.29476,-0.0417 2.71431,-0.88586 2.93735,-2.24341 0.20048,-1.07595 -0.56875,-2.13238 -1.58442,-2.44584 -0.55491,-0.20638 -1.14907,-0.28931 -1.73959,-0.27713 z"
       id="path21"
       transform="matrix(7.5,0,0,-7.5,0,5120)" />
    <path
       style="display:inline;fill:#a05a2c;stroke-width:1"
       d="m 429.71782,476.06683 c -12.93482,0.19337 -25.60459,3.43507 -38.0272,6.77871 -21.22645,6.02194 -41.45656,15.29928 -60.08874,27.09353 -3.20447,2.22807 -7.07114,3.75391 -9.83703,6.4941 -0.93099,3.07568 2.42231,5.34736 3.7203,7.7896 1.67161,2.79825 4.63578,5.89094 3.68152,9.37377 -2.58567,3.66867 -8.19575,4.90839 -11.86561,2.03332 -3.94302,-2.166 -6.61706,-6.16279 -10.56344,-8.17772 -3.33436,1.32046 -5.53851,4.60555 -8.39576,6.74456 -16.00776,14.30618 -31.46913,30.06711 -40.9912,49.56155 -5.44646,11.58745 -6.81311,25.06082 -3.99092,37.52641 2.29504,8.22104 7.24739,15.65582 14.23196,20.6192 10.84912,7.91325 24.64881,10.17394 37.74081,11.04581 14.6165,0.31469 29.32452,-0.1528 43.68674,-3.11042 29.75023,-5.43937 58.46016,-16.87439 83.34709,-34.13463 21.8171,-14.90006 42.41309,-32.90131 55.62351,-56.10425 6.59536,-11.83436 10.77256,-25.29562 10.13088,-38.94937 0.89212,-13.06209 -5.54082,-26.24742 -16.3402,-33.63285 -12.95037,-9.13867 -29.34299,-10.1531 -44.64769,-10.86221 -2.47073,-0.0806 -4.94302,-0.11748 -7.41502,-0.0891 z m -119.05363,81.15594 c -2.20169,1.18076 -4.40592,2.35945 -6.54208,3.65677 1.02123,-2.15098 2.87219,-4.10357 5.46865,-3.70297 0.0279,0.0548 1.73951,-0.18594 1.07343,0.0462 z m 7.4967,7.41007 c 4.4352,-0.0621 10.56525,1.26636 11.57673,6.33746 0.87552,6.15638 -3.11678,11.65163 -7.06188,15.94802 -5.40731,5.35032 -13.13183,9.0217 -20.61468,8.51815 -6.08536,0.76545 -12.30607,-3.51645 -13.28053,-9.66502 -1.2141,-6.32082 4.31768,-10.9195 8.55693,-14.58663 5.81429,-4.74152 13.47767,-6.41293 20.82343,-6.55198 z"
       id="path22"
       transform="matrix(7.5,0,0,-7.5,0,5120)" />
    <path
       style="display:inline;fill:#803300;stroke-width:0.999997"
       d="m 269.59671,462.58975 c -1.16637,0.16955 -1.9815,1.444 -1.62864,2.57143 0.4424,1.17573 1.3371,2.11116 2.03985,3.13572 4.90442,6.45272 9.98144,12.77198 14.9943,19.14033 2.53236,3.15468 4.98106,6.37932 7.60347,9.46004 0.82553,0.95 2.50396,0.92252 3.21833,-0.14255 0.64946,-0.80923 0.42997,-1.96323 -0.14078,-2.75268 -2.85964,-4.56482 -6.04443,-8.91596 -9.21643,-13.26627 -3.82749,-5.14318 -7.7186,-10.25918 -12.06751,-14.97738 -1.07148,-1.10123 -2.2212,-2.15973 -3.53542,-2.96261 -0.38982,-0.20383 -0.83385,-0.25898 -1.26717,-0.20603 z"
       id="path20"
       transform="matrix(7.5,0,0,-7.5,0,5120)" />
    <path
       style="display:inline;fill:#999999;stroke-width:1"
       d="m 168.47227,327.45695 c -3.66042,0.72781 -5.8158,4.28417 -8.17181,6.85227 -1.38614,2.00022 -3.60351,3.67068 -4.23568,6.06115 -0.20193,2.15046 2.68367,2.80847 3.90588,1.29289 3.81137,-3.2795 7.6604,-6.62542 10.80788,-10.55876 0.92143,-1.62569 -0.4194,-3.81055 -2.30627,-3.64755 z"
       id="path19"
       transform="matrix(7.5,0,0,-7.5,0,5120)" />
    <path
       style="display:inline;fill:#999999;stroke-width:1"
       d="m 162.94144,319.58951 c -3.11249,1.22325 -5.69587,3.55317 -8.33381,5.57272 -2.94467,2.78919 -6.22466,5.61227 -7.78552,9.43805 -0.44199,2.03599 1.61801,3.72417 3.12128,4.81389 3.0088,1.2928 5.6792,-1.52992 7.8967,-3.15639 3.32566,-2.958 7.37484,-5.53547 9.41108,-9.6217 0.74757,-2.45107 -0.90605,-5.00978 -2.63006,-6.63059 -0.48396,-0.34858 -1.09049,-0.48919 -1.67967,-0.41598 z"
       id="path18"
       transform="matrix(7.5,0,0,-7.5,0,5120)" />
    <path
       style="display:inline;fill:#999999;stroke-width:1"
       d="m 133.34622,270.37091 c -3.97095,0.64048 -7.06219,3.59362 -10.22271,5.87214 -5.37749,4.47388 -10.9524,9.02919 -14.75823,14.97876 -1.97708,3.16893 0.6362,6.69504 2.61898,9.11129 1.45875,1.49556 3.35858,4.23006 5.7677,2.99354 1.33498,-0.82987 0.94067,-2.68123 2.19309,-3.63005 4.5607,-5.33182 9.66757,-10.62088 16.20978,-13.44495 0.8918,-0.14528 2.12513,-0.36859 2.9136,-0.0338 -0.33465,2.74339 -2.88796,4.5739 -4.82022,6.32603 -4.81955,3.75583 -9.82388,7.46232 -15.39941,9.97651 -1.87114,1.36567 -0.55427,3.72168 0.8057,4.90074 7.44092,7.82372 15.40713,15.12622 23.12974,22.66768 2.08763,1.62912 3.67649,-1.0379 4.83527,-2.45724 2.94348,-3.83784 6.99287,-6.58532 11.24791,-8.77363 2.14239,-1.04777 3.27469,-3.59761 2.37278,-5.8488 -2.76407,-7.61163 -7.43655,-14.33943 -11.31148,-21.40507 -3.61668,-5.90809 -6.71311,-12.16973 -10.82082,-17.75849 -1.27511,-1.41219 -2.64032,-3.47135 -4.76168,-3.47463 z"
       id="path17"
       transform="matrix(7.5,0,0,-7.5,0,5120)" />
    <path
       style="display:inline;fill:#deaa87;stroke-width:1"
       d="m 91.387717,216.26324 c -3.293278,0.14334 -4.167631,3.95353 -4.811009,6.55589 -1.65981,8.19808 -4.923281,15.88035 -7.779168,23.77663 -2.680758,8.33332 -4.180329,17.43478 -2.172135,26.07558 1.765366,5.95157 7.423078,9.4933 12.506222,12.40996 3.566391,1.73623 7.875622,4.23096 11.807283,2.05364 4.80717,-2.90282 8.48588,-7.36319 12.99976,-10.56169 5.49552,-4.39084 11.71942,-7.60771 17.52835,-11.54181 2.26678,-1.74257 0.53857,-4.75762 0.42706,-7.03723 -1.35561,-8.32008 -4.51812,-16.39617 -9.27534,-23.35905 -3.56637,-4.99683 -9.36262,-7.61852 -14.41676,-10.80794 -5.05521,-2.73199 -10.0118,-5.91923 -15.590245,-7.46655 -0.40316,-0.0742 -0.813806,-0.11626 -1.224018,-0.0974 z"
       id="path16"
       transform="matrix(7.5,0,0,-7.5,0,5120)" />
    <path
       d="m 2506,4909 c -32,-11 -68,-26 -80,-33 -12,-8 -62,-16 -116,-19 -80,-4 -124,-14 -274,-62 C 1564,4645 1276,4483 996,4211 596,3821 348,3308 275,2720 c -19,-154 -19,-221 0,-379 42,-358 142,-652 324,-959 177,-300 396,-539 666,-727 200,-139 477,-276 603,-298 57,-10 66,-15 103,-59 76,-90 189,-128 386,-128 127,0 296,26 448,70 38,11 86,20 105,20 20,0 101,16 181,35 289,71 511,175 794,374 319,223 583,543 769,931 122,255 194,524 216,814 27,358 -77,817 -267,1176 -274,518 -699,909 -1211,1114 -106,43 -305,106 -332,106 -7,0 -47,16 -90,35 -103,46 -258,85 -340,85 -38,-1 -89,-9 -124,-21 z m 202,-28 c 18,-4 1,-11 -63,-24 -47,-10 -110,-28 -139,-41 -50,-22 -131,-84 -122,-93 2,-2 30,9 62,25 82,41 246,92 320,99 80,7 170,-19 279,-83 95,-56 282,-238 333,-325 l 33,-56 -17,-37 c -20,-41 -25,-43 -48,-17 -28,31 -115,64 -152,58 -31,-5 -39,1 -121,85 -127,130 -249,206 -372,233 -51,11 -31,-10 47,-49 141,-72 294,-203 367,-316 170,-265 251,-601 262,-1095 8,-337 -17,-485 -106,-622 -33,-51 -98,-119 -106,-111 -2,2 3,28 11,58 28,108 54,287 61,433 5,81 5,147 1,147 -5,0 -8,-4 -8,-10 0,-5 -5,-10 -11,-10 -5,0 -7,5 -3,12 4,6 10,63 14,127 15,235 -26,515 -107,726 -34,90 -72,155 -73,125 0,-9 18,-75 40,-148 41,-136 77,-308 67,-318 -9,-9 -109,23 -147,48 l -35,22 35,6 c 76,11 35,61 -63,75 -43,7 -54,14 -98,67 -56,67 -73,98 -104,182 -12,33 -26,61 -31,63 -5,2 -10,-90 -10,-225 -1,-125 -6,-240 -11,-257 l -9,-29 -49,74 c -27,41 -69,116 -94,165 -24,50 -46,85 -48,78 -13,-38 69,-282 138,-413 l 29,-55 -25,-3 c -72,-9 -207,43 -310,120 -77,57 -151,143 -130,152 26,9 17,44 -15,61 -16,8 -36,15 -44,15 -43,0 -71,324 -42,485 29,157 29,155 3,100 -13,-27 -34,-88 -46,-135 -13,-47 -34,-105 -47,-130 -60,-114 -204,-449 -220,-515 l -8,-30 -7,25 c -4,14 -8,61 -9,105 -2,68 -3,75 -11,45 -31,-124 -16,-333 35,-496 13,-40 20,-74 16,-74 -4,0 -30,24 -56,53 -121,132 -175,347 -144,567 7,50 11,92 8,95 -11,12 -59,-145 -70,-230 -9,-68 -15,-91 -21,-79 -16,28 0,174 29,264 33,105 144,332 209,425 99,141 289,311 416,370 41,19 47,24 31,29 -40,13 -172,-51 -270,-131 -78,-64 -211,-223 -277,-333 -91,-150 -160,-293 -180,-373 -10,-37 -20,-65 -22,-63 -7,7 63,252 109,378 57,159 57,159 21,121 -28,-30 -74,-55 -135,-73 -40,-12 -34,-4 15,21 23,12 68,43 100,68 32,25 71,56 87,67 16,12 27,24 24,27 -11,10 66,115 136,186 119,122 249,205 367,236 81,21 96,20 83,-5 -7,-13 -21,-20 -39,-20 -16,0 -31,-7 -35,-15 -4,-10 1,-15 14,-15 10,0 31,-5 45,-12 23,-11 29,-8 68,29 60,57 94,78 162,102 60,20 182,27 233,12 z m 692,-238 c 412,-168 758,-457 1015,-848 133,-203 216,-377 278,-590 205,-691 103,-1342 -301,-1936 -97,-142 -122,-170 -122,-135 0,7 -35,53 -77,101 -121,136 -203,237 -220,270 -9,17 -44,73 -78,125 -34,52 -95,151 -136,219 -44,74 -99,150 -134,186 -55,57 -79,71 -285,172 l -225,110 -92,101 -93,100 34,6 c 19,4 59,20 90,36 31,17 56,27 56,24 0,-4 -14,-36 -32,-71 -24,-49 -29,-69 -21,-81 31,-50 142,-4 233,95 33,36 60,69 60,74 0,4 17,13 38,20 70,22 232,152 284,227 l 30,44 20,-22 c 44,-47 123,14 184,143 39,82 39,82 39,207 -1,152 -19,211 -130,426 -53,102 -78,164 -90,220 -19,87 -35,145 -46,157 -4,5 -2,25 3,44 7,24 6,56 -1,97 -6,34 -16,94 -21,134 -12,85 -28,122 -66,147 -26,17 -73,17 -114,1 -10,-4 -30,16 -65,66 -27,39 -72,96 -100,126 -57,63 -56,63 85,5 z m -1678,-50 c -33,-38 -80,-101 -106,-140 -49,-79 -97,-119 -211,-180 -59,-31 -83,-38 -150,-43 -77,-5 -80,-6 -80,-29 0,-19 11,-30 50,-50 44,-23 62,-26 150,-26 h 100 l -56,-185 c -31,-102 -79,-235 -107,-296 -28,-61 -68,-167 -88,-235 -33,-110 -37,-137 -38,-239 -1,-100 2,-122 22,-166 26,-57 74,-110 91,-100 17,11 13,49 -14,132 -37,112 -34,187 14,359 17,60 20,65 20,33 1,-20 -6,-72 -14,-115 -30,-155 -13,-268 58,-407 68,-131 200,-256 271,-256 26,0 36,-8 58,-43 75,-119 225,-219 274,-183 19,14 18,16 -14,81 -18,37 -31,69 -30,71 2,2 30,-10 62,-26 32,-16 73,-32 92,-36 19,-3 34,-9 34,-13 0,-16 -180,-181 -225,-206 -27,-15 -57,-34 -66,-42 -14,-12 -18,-10 -33,12 -14,22 -23,25 -74,25 h -59 l -97,125 c -53,69 -123,153 -155,188 -36,39 -101,135 -176,262 -65,110 -132,218 -150,240 -27,33 -33,51 -37,108 -7,85 -43,160 -106,222 -61,61 -194,127 -266,133 l -55,4 -5,-33 c -3,-19 -7,-51 -10,-72 -3,-21 -24,-86 -48,-145 -36,-92 -42,-117 -43,-183 0,-70 3,-81 31,-120 36,-51 118,-105 173,-114 31,-5 41,-13 54,-43 10,-23 85,-103 197,-211 99,-95 189,-190 199,-210 11,-20 65,-89 120,-153 l 100,-117 -38,-46 c -48,-58 -61,-101 -61,-203 v -81 l -51,-63 c -137,-168 -169,-191 -362,-268 -83,-33 -121,-54 -161,-91 l -52,-48 -71,137 c -168,325 -249,629 -260,977 -6,201 6,325 52,530 86,384 239,690 510,1020 183,223 453,423 760,565 72,32 131,60 133,60 2,0 -23,-30 -56,-67 z m 1853,-246 c 19,-47 48,-258 38,-284 l -8,-22 -55,22 -54,22 -11,63 c -7,38 -20,71 -33,85 -31,33 -28,51 21,102 53,55 82,59 102,12 z m -300,-48 c 64,-30 121,-98 134,-160 16,-72 14,-89 -17,-142 l -28,-47 -39,97 c -21,54 -53,127 -70,163 -59,118 -57,125 20,89 z m 276,-288 c 60,-38 89,-76 89,-117 0,-48 -26,-59 -87,-36 l -48,18 -20,-35 c -27,-46 -39,-48 -75,-13 -36,37 -38,61 -6,91 14,13 30,36 36,52 12,28 30,31 30,4 0,-8 5,-26 11,-42 9,-25 11,-26 21,-10 7,13 7,32 -1,62 -17,68 -16,68 50,26 z M 2045,3848 c 9,-22 15,-42 13,-43 -2,-1 -28,-10 -59,-19 -31,-9 -62,-23 -69,-31 -19,-22 -32,-18 -25,8 9,30 74,166 94,196 l 16,25 7,-48 c 4,-26 14,-66 23,-88 z m 757,-7 28,-29 -30,-11 -30,-10 v 40 c 0,21 1,39 3,39 1,0 14,-13 29,-29 z m 883,-88 c 4,-16 22,-53 41,-85 51,-83 123,-251 140,-326 20,-87 22,-189 4,-227 -13,-29 -14,-25 -21,75 -3,58 -13,123 -22,146 -35,94 -127,248 -127,213 0,-8 14,-77 31,-154 40,-181 38,-252 -12,-345 -18,-35 -54,-86 -79,-113 -117,-129 -181,-194 -210,-211 -32,-18 -32,-18 -26,1 21,67 36,191 36,303 0,120 2,132 29,191 44,95 47,213 6,273 -23,34 -24,39 -11,64 18,35 32,84 46,154 l 11,57 47,-5 c 26,-3 58,-1 72,5 36,14 37,14 45,-16 z m -2239,-36 c -8,-52 8,-172 31,-228 9,-23 42,-73 73,-110 l 57,-68 6,-253 c 3,-142 11,-270 17,-291 6,-22 9,-41 7,-44 -22,-22 -155,112 -206,206 -48,91 -61,163 -61,356 0,189 17,329 49,400 12,26 21,54 21,61 0,8 3,14 6,14 4,0 3,-19 0,-43 z m 2005,3 c 14,0 16,-6 9,-36 -11,-47 -31,-94 -40,-94 -4,0 -10,26 -13,58 -4,31 -10,68 -14,81 -6,24 -6,24 18,8 13,-9 31,-17 40,-17 z m -543,-18 c 72,-76 143,-112 217,-112 h 41 l 10,-75 c 8,-62 7,-73 -3,-58 -7,9 -13,22 -13,29 0,7 -16,21 -35,33 -19,11 -35,24 -35,29 0,20 -160,72 -218,72 -29,0 -118,-37 -110,-45 3,-3 26,4 52,15 60,25 96,26 40,1 -23,-11 -60,-36 -83,-56 -33,-30 -41,-44 -41,-71 0,-38 5,-41 32,-17 18,16 18,15 3,-27 -49,-138 16,-291 124,-294 115,-3 204,169 158,302 l -15,44 25,-24 c 41,-38 63,-91 63,-155 l 1,-58 35,40 34,40 -6,-45 c -49,-334 -208,-519 -554,-645 -94,-34 -150,-31 -276,17 -245,92 -400,237 -448,419 -8,31 -31,100 -51,154 -20,53 -34,99 -32,101 2,2 19,-12 37,-31 19,-19 37,-35 40,-35 3,0 5,29 5,63 0,74 14,106 62,143 41,31 48,28 27,-14 -18,-38 -20,-127 -3,-180 24,-77 95,-142 154,-142 40,0 84,30 112,77 27,45 31,134 8,190 -19,44 -19,49 -1,34 27,-23 28,9 2,54 -49,83 -147,133 -239,121 -28,-4 -70,-7 -92,-7 -36,1 -38,0 -22,-13 17,-13 15,-16 -20,-45 -21,-17 -43,-31 -50,-31 -24,0 -11,71 32,178 l 17,42 h 109 108 l 30,-43 c 16,-24 36,-49 45,-56 26,-22 18,-30 -20,-19 -20,5 -38,8 -40,5 -3,-2 17,-10 43,-17 27,-8 74,-34 108,-60 68,-54 158,-101 227,-120 49,-13 201,-10 215,4 4,4 0,28 -9,54 -17,46 -17,47 7,72 24,26 44,91 45,147 0,28 4,32 33,36 76,9 88,7 115,-21 z M 790,3438 c 41,-22 87,-51 102,-65 33,-31 74,-123 83,-184 l 7,-45 -64,-38 c -34,-20 -87,-59 -117,-87 -45,-43 -57,-50 -80,-44 -47,12 -111,55 -127,87 -24,47 -14,154 24,243 17,39 35,96 42,128 14,68 12,68 130,5 z m 1053,46 c 7,-7 -22,-54 -34,-54 -4,0 -3,14 2,30 11,29 20,36 32,24 z m 1606,-124 c 0,-19 -4,-42 -9,-50 -7,-10 -9,8 -9,60 1,53 3,68 9,50 4,-14 8,-41 9,-60 z m -519,1 c 24,-46 -1,-88 -39,-64 -23,15 -25,42 -5,64 22,24 31,24 44,0 z m -773,1 c 19,-12 20,-53 1,-65 -13,-9 -21,-7 -37,7 -25,23 -26,30 -5,50 17,18 24,19 41,8 z m 754,-82 c 8,0 21,6 28,13 10,10 17,6 37,-16 13,-15 24,-32 24,-38 0,-5 -15,-26 -33,-46 -40,-43 -82,-48 -125,-16 -45,33 -50,65 -18,108 l 28,36 22,-20 c 12,-12 29,-21 37,-21 z m -788,0 c 23,-11 33,-11 48,-2 26,16 27,16 48,-19 16,-26 17,-36 8,-56 -12,-28 -55,-53 -89,-53 -30,0 -88,58 -88,89 0,24 28,65 39,58 3,-1 19,-9 34,-17 z m -321,-355 c 14,-151 36,-288 64,-390 11,-42 -86,78 -121,148 -47,97 -65,192 -72,377 l -6,155 59,-55 59,-55 z m -756,103 c 177,-305 165,-269 103,-303 -15,-8 -37,-27 -51,-43 l -24,-29 -98,94 c -55,51 -94,93 -87,93 15,0 96,53 134,88 52,49 21,84 -41,45 -43,-26 -112,-96 -112,-113 -1,-22 -50,36 -50,59 0,28 147,159 180,160 9,1 29,-23 46,-51 z m 2730,-44 c -4,-9 -9,-15 -11,-12 -3,3 -3,13 1,22 4,9 9,15 11,12 3,-3 3,-13 -1,-22 z m -601,-86 c -11,-111 -26,-147 -89,-214 -71,-77 -129,-104 -239,-112 -74,-5 -79,-4 -75,14 2,11 27,31 58,47 132,70 269,194 320,290 14,26 27,47 28,47 2,0 1,-33 -3,-72 z M 2095,2694 c 33,-22 80,-50 105,-61 25,-12 54,-28 65,-36 18,-14 17,-16 -28,-22 -75,-12 -141,-1 -213,35 -98,48 -147,125 -160,249 l -6,56 89,-91 c 48,-50 115,-108 148,-130 z m -855,-3 c 8,-17 2,-26 -46,-67 -49,-42 -57,-46 -70,-32 -14,13 -12,19 12,48 22,26 79,70 91,70 1,0 7,-9 13,-19 z m 29,-48 c -1,-5 -24,-28 -52,-53 -48,-42 -50,-43 -24,-10 15,19 35,43 44,53 17,18 34,23 32,10 z m 1021,-164 c 0,-15 -4,-19 -16,-15 -9,3 -27,6 -41,6 -21,0 -24,2 -13,15 7,8 25,15 41,15 23,0 29,-5 29,-21 z m 528,13 c 9,-7 8,-13 -7,-26 -22,-20 -36,-16 -44,14 -4,15 0,20 16,20 12,0 28,-4 35,-8 z m -108,-71 c 0,-33 6,-55 16,-66 21,-21 20,-24 -116,-265 -136,-241 -121,-227 -160,-150 -18,36 -41,87 -50,115 -10,27 -36,96 -58,152 l -40,102 24,32 c 13,19 24,47 24,65 v 31 l 47,-23 c 67,-34 140,-32 219,5 34,16 65,34 68,40 15,24 26,8 26,-38 z m -465,-155 c 26,-82 73,-208 104,-280 97,-220 96,-185 13,-323 -39,-65 -82,-131 -95,-147 l -24,-29 -57,77 c -74,100 -102,154 -115,219 -58,288 -71,370 -71,444 0,48 1,50 92,142 86,87 93,91 99,69 4,-12 28,-90 54,-172 z m 811,-45 c -13,-94 -101,-327 -196,-515 l -95,-189 -140,-71 c -77,-39 -163,-88 -191,-109 -28,-20 -54,-37 -57,-37 -3,0 -26,29 -50,64 l -45,64 33,48 c 87,130 203,314 240,379 240,429 264,474 290,554 l 17,53 100,-98 99,-99 z m -1499,53 c -3,-3 -12,-4 -19,-1 -8,3 -5,6 6,6 11,1 17,-2 13,-5 z m 171,-56 c -4,-14 -48,-37 -161,-87 -49,-22 -72,-39 -85,-62 -9,-17 -28,-45 -41,-61 -37,-45 -17,-54 68,-28 101,30 158,34 250,20 82,-13 118,-33 90,-51 -16,-10 -25,-11 -139,-13 -65,-2 -97,-7 -135,-25 -55,-26 -48,-38 12,-22 47,13 123,14 143,1 12,-8 9,-10 -13,-10 -27,0 -141,-49 -133,-57 1,-2 30,3 63,11 59,13 61,13 129,-16 82,-36 82,-36 64,-49 -9,-6 -47,-8 -89,-5 -83,5 -132,-9 -151,-43 -8,-16 -7,-43 5,-111 9,-49 13,-100 9,-114 -3,-13 -22,-41 -42,-62 -40,-42 -118,-182 -268,-481 l -97,-193 -51,42 c -28,23 -84,71 -125,107 l -73,65 6,43 c 9,64 22,83 121,171 50,44 126,122 170,173 44,51 95,108 113,127 35,38 39,63 22,151 -5,29 -18,112 -29,186 -26,175 -18,212 60,291 65,66 117,92 201,103 96,13 110,12 106,-1 z m 207,-45 c 4,-27 18,-104 32,-173 14,-69 29,-142 33,-163 4,-21 4,-35 0,-30 -4,4 -27,35 -52,68 -38,50 -44,65 -40,93 5,40 -17,69 -62,78 -21,4 -41,19 -61,47 -16,23 -30,45 -30,49 0,9 158,87 166,82 4,-2 10,-25 14,-51 z m 1412,-64 c 210,-104 235,-122 294,-216 l 18,-29 -77,-135 c -69,-120 -80,-134 -102,-131 -207,22 -395,10 -549,-34 -46,-14 -86,-23 -88,-21 -2,3 10,28 27,58 82,138 209,435 240,562 7,26 17,47 23,47 5,0 102,-45 214,-101 z m 383,-367 c 24,-42 68,-113 97,-156 29,-43 53,-82 53,-87 0,-4 -23,-35 -51,-69 l -52,-61 -33,49 c -40,60 -93,105 -156,134 -27,12 -48,23 -48,24 0,2 17,30 38,62 20,32 51,86 67,120 16,34 32,62 35,62 3,0 25,-35 50,-78 z m -2416,-82 c 15,-84 14,-85 -9,-125 -13,-22 -38,-55 -55,-74 l -31,-34 -37,34 c -35,33 -29,18 12,-29 18,-20 18,-24 5,-38 -14,-13 -22,-13 -75,1 -91,24 -149,13 -201,-38 -24,-23 -43,-44 -43,-48 0,-3 26,2 58,13 37,12 78,18 117,16 80,-4 83,-22 11,-76 -62,-47 -68,-49 -64,-24 4,21 -34,29 -50,9 -23,-28 -60,-143 -55,-172 l 4,-30 -36,40 c -33,37 -131,163 -149,192 -12,20 40,97 81,120 21,12 73,35 116,52 43,17 100,42 127,56 50,25 208,176 238,228 9,15 18,24 19,20 1,-4 9,-46 17,-93 z m 506,13 c 12,-16 85,-97 163,-182 78,-84 143,-159 145,-167 4,-14 -83,-174 -124,-230 -33,-45 -91,-164 -99,-204 -4,-19 -25,-80 -47,-135 -32,-80 -41,-117 -45,-186 -4,-58 -1,-93 7,-109 12,-22 11,-23 -18,-17 -17,4 -47,13 -66,21 -32,13 -36,19 -36,50 0,50 -25,160 -55,246 -33,90 -125,288 -154,329 l -21,29 61,126 c 34,69 64,128 68,130 3,2 7,-21 8,-52 5,-94 73,-479 99,-552 13,-38 24,-81 24,-95 0,-14 5,-25 11,-25 11,0 8,30 -16,155 -8,39 -21,126 -30,195 -27,213 -45,334 -56,366 -8,27 -6,39 17,80 27,51 28,90 8,217 l -6,37 h 70 c 65,0 72,-2 92,-27 z m 310,-158 c 65,-88 104,-149 58,-91 -178,225 -180,227 -149,201 13,-11 54,-60 91,-110 z m 1345,-1 c 114,-30 182,-81 222,-163 48,-98 33,-264 -34,-396 C 3571,776 3391,603 3142,453 2844,274 2425,191 2150,256 c -172,40 -260,157 -247,329 7,94 37,168 104,262 63,88 126,156 226,245 l 68,61 32,-31 c 46,-44 81,-56 116,-37 49,25 48,50 -5,122 l -24,32 92,57 c 203,126 435,210 658,238 65,8 245,-3 305,-20 z m 512,-154 c 23,-30 78,-95 123,-145 92,-102 114,-137 104,-167 -9,-28 -170,-186 -247,-242 -247,-179 -412,-276 -605,-357 -111,-47 -161,-59 -90,-23 18,9 46,27 61,40 16,13 34,21 39,18 7,-4 8,-2 4,4 -4,6 4,16 16,23 12,7 79,67 148,134 69,66 141,131 160,143 19,11 47,36 61,55 15,18 70,59 122,90 146,87 194,134 125,120 -68,-13 -216,-104 -270,-165 -26,-29 -22,-5 8,53 54,107 76,250 53,348 l -10,45 63,63 c 63,64 63,64 78,41 8,-12 34,-47 57,-78 z M 2225,1188 c -16,-11 -75,-66 -130,-122 -64,-65 -92,-88 -79,-66 12,19 54,91 94,158 l 73,124 36,-37 36,-36 z m -759,-174 c 60,-102 154,-390 154,-472 v -33 l -100,52 c -78,41 -99,56 -94,68 26,62 25,201 -1,266 -11,28 -12,22 -19,-65 -7,-93 -23,-180 -34,-180 -19,0 -92,58 -92,73 0,10 32,85 70,166 39,81 70,152 70,159 0,25 20,10 46,-34 z"
       id="path1"
       style="display:inline" />
    <path
       d="m 2290,947 c -8,-6 -21,-25 -28,-41 l -13,-29 28,19 c 15,10 44,26 63,36 19,9 33,18 30,19 -31,8 -68,6 -80,-4 z"
       id="path2"
       style="display:inline" />
    <path
       d="m 2308,889 c -78,-18 -158,-94 -158,-148 0,-36 27,-77 60,-91 82,-34 196,11 252,99 69,110 -3,176 -154,140 z m 88,-83 c 9,-23 -14,-55 -56,-76 -46,-24 -69,-25 -96,-6 -19,14 -19,15 2,43 33,44 138,71 150,39 z"
       id="path3"
       style="display:inline" />
    <path
       d="m 2431,561 c 12,-17 19,-36 15,-46 -3,-9 -2,-13 4,-10 16,10 11,38 -9,63 -28,32 -35,27 -10,-7 z"
       id="path4"
       style="display:inline" />
  </g>
</svg>
